<?xml version="1.0" encoding="UTF-8" standalone="no"?>
<!-- Created with Inkscape (http://www.inkscape.org/) -->

<svg
   version="1.1"
   id="svg1"
   width="23.288063"
   height="22.247484"
   viewBox="0 0 23.288063 22.247483"
   sodipodi:docname="rochester-flower.svg"
   inkscape:version="1.3 (0e150ed, 2023-07-21)"
   xmlns:inkscape="http://www.inkscape.org/namespaces/inkscape"
   xmlns:sodipodi="http://sodipodi.sourceforge.net/DTD/sodipodi-0.dtd"
   xmlns="http://www.w3.org/2000/svg"
   xmlns:svg="http://www.w3.org/2000/svg">
  <defs
     id="defs1" />
  <sodipodi:namedview
     id="namedview1"
     pagecolor="#ffffff"
     bordercolor="#000000"
     borderopacity="0.25"
     inkscape:showpageshadow="2"
     inkscape:pageopacity="0.0"
     inkscape:pagecheckerboard="0"
     inkscape:deskcolor="#d1d1d1"
     showgrid="false"
     inkscape:zoom="2.8284271"
     inkscape:cx="113.66742"
     inkscape:cy="-92.984542"
     inkscape:window-width="3440"
     inkscape:window-height="1387"
     inkscape:window-x="205"
     inkscape:window-y="25"
     inkscape:window-maximized="0"
     inkscape:current-layer="g1" />
  <g
     inkscape:groupmode="layer"
     inkscape:label="Image"
     id="g1"
     transform="translate(-51.166094,-44.83927)">
    <path
       style="fill:#000000;stroke-width:0.0707268"
       d="m 56.941457,66.869116 c -0.239431,-0.119531 -0.431362,-0.227559 -0.426508,-0.240074 0.01618,-0.04171 6.042245,-8.537094 6.216836,-8.764305 0.03848,-0.05011 0.05571,-0.02712 1.679653,2.240631 0.902419,1.260185 2.324152,3.243514 3.159408,4.407398 0.835255,1.163883 1.516076,2.124517 1.512938,2.134743 -0.0031,0.01029 -0.190752,0.113241 -0.416916,0.228918 l -0.41121,0.210327 -0.06354,-0.06663 c -0.171244,-0.179602 -0.594155,-0.397043 -0.989449,-0.508728 -0.197993,-0.05593 -0.238014,-0.05878 -1.065758,-0.07544 -0.711478,-0.01431 -0.90501,-0.02531 -1.120364,-0.06359 -0.685029,-0.121819 -1.171173,-0.403311 -1.973988,-1.143062 l -0.279743,-0.257767 -0.251137,0.24369 c -0.535002,0.519137 -1.030713,0.858554 -1.501059,1.027784 -0.430293,0.154816 -0.800561,0.196196 -1.72008,0.192224 -0.673664,-0.003 -0.781315,0.0094 -1.109352,0.127151 -0.295835,0.106153 -0.523713,0.243377 -0.704622,0.424289 l -0.09976,0.09976 z m 3.344916,-1.675911 c 0.245195,-0.07038 0.592921,-0.248088 0.815922,-0.41697 0.577662,-0.437465 0.945646,-1.051196 1.052464,-1.755325 0.02792,-0.184048 0.02917,-0.359211 0.0084,-1.156161 -0.01346,-0.516594 -0.03138,-0.993983 -0.03967,-1.060867 l -0.0151,-0.121617 -0.678979,0.901528 c -0.679698,0.902479 -1.905207,2.520068 -2.369676,3.127811 l -0.247101,0.323323 0.149767,0.06789 c 0.275001,0.124694 0.457419,0.157301 0.826142,0.147672 0.248439,-0.0064 0.369416,-0.02041 0.49792,-0.05729 z m 6.133447,-0.01236 c 0.105808,-0.03427 0.23093,-0.08189 0.278052,-0.105807 l 0.08567,-0.04352 -0.07669,-0.09533 c -0.116614,-0.144963 -1.677223,-2.16794 -2.513273,-3.2579 -0.408046,-0.531965 -0.750239,-0.972366 -0.760427,-0.978662 -0.02637,-0.01629 -0.05412,0.803128 -0.05591,1.651653 -0.0017,0.723665 -0.0014,0.724424 0.06087,0.947542 0.137815,0.493138 0.368245,0.884724 0.721595,1.226248 0.379284,0.366589 0.761971,0.581888 1.227211,0.690423 0.284065,0.06627 0.771763,0.04991 1.032882,-0.03463 z m 2.934589,-0.81314 c -0.557404,-0.764627 -1.994604,-2.712021 -3.19378,-4.327542 l -2.180318,-2.937249 1.960974,-0.627293 c 4.620098,-1.47792 8.363582,-2.666757 8.371693,-2.658644 0.01129,0.01128 0.140991,0.824393 0.141179,0.884532 7.1e-5,0.0323 -0.03713,0.06449 -0.129941,0.112345 -0.264929,0.136636 -0.681398,0.613549 -0.874936,1.00193 -0.08005,0.16063 -0.09183,0.196967 -0.239244,0.737633 -0.35158,1.289453 -0.779772,1.788395 -2.11288,2.461996 -0.176304,0.08907 -0.324442,0.165374 -0.329192,0.169529 -0.0048,0.0041 0.06484,0.172263 0.154689,0.373566 0.386541,0.866183 0.504763,1.307886 0.5052,1.887522 3.52e-4,0.466327 -0.08311,0.885205 -0.303632,1.523988 -0.220014,0.637288 -0.230267,0.687936 -0.232158,1.146662 -0.0014,0.356159 0.0048,0.431141 0.04965,0.596275 0.02823,0.1039 0.07638,0.238345 0.107011,0.298793 l 0.05568,0.109905 -0.353039,0.312289 c -0.194171,0.17176 -0.359898,0.314938 -0.368282,0.318173 -0.0084,0.0031 -0.471299,-0.619721 -1.028702,-1.384348 z m 0.465159,-1.719104 c 0.207263,-0.302777 0.309182,-0.631179 0.327585,-1.05552 0.04221,-0.973596 -0.493125,-1.928666 -1.331448,-2.375344 -0.130303,-0.06944 -0.518333,-0.210009 -1.262495,-0.457385 -0.5909,-0.196431 -1.077555,-0.353956 -1.081453,-0.350058 -0.0038,0.0038 0.411794,0.612134 0.923762,1.351636 0.511967,0.7395 1.210932,1.755296 1.553256,2.257321 l 0.622409,0.912774 0.07877,-0.07537 c 0.04332,-0.04146 0.119654,-0.135079 0.169608,-0.208056 z m 0.228575,-4.622974 c 0.506749,-0.09579 0.998842,-0.355821 1.363199,-0.720338 0.263437,-0.263554 0.473507,-0.620042 0.567464,-0.962983 0.04052,-0.147849 0.06145,-0.724235 0.02756,-0.758138 -0.0082,-0.0082 -1.177456,0.374354 -2.598193,0.850268 -1.420736,0.475916 -2.575027,0.872955 -2.565088,0.882313 0.02762,0.02602 1.847647,0.620712 2.066358,0.67519 0.386484,0.09627 0.750638,0.107048 1.138699,0.03368 z m -15.162914,7.299157 -0.364005,-0.319298 0.06564,-0.131359 c 0.218253,-0.436765 0.264053,-1.266329 0.09805,-1.775981 -0.02839,-0.08714 -0.09889,-0.280646 -0.15668,-0.430021 -0.471039,-1.217501 -0.428386,-1.933682 0.193301,-3.245531 0.07314,-0.154362 0.132968,-0.291856 0.132927,-0.305542 -4.8e-5,-0.01375 -0.0688,-0.06035 -0.152771,-0.103739 C 54.466105,58.89165 53.998783,58.606701 53.789857,58.457326 53.5383,58.277467 53.201754,57.955051 53.043152,57.741969 52.798158,57.41282 52.57155,56.90864 52.398802,56.308351 c -0.04657,-0.161822 -0.119274,-0.369965 -0.16159,-0.462538 -0.191146,-0.418285 -0.628447,-0.940463 -0.929934,-1.110429 -0.07729,-0.04355 -0.140813,-0.0859 -0.141181,-0.09406 -9.65e-4,-0.02125 0.224019,-0.998212 0.231629,-1.005825 0.0036,-0.0036 1.02967,0.324452 2.280416,0.728743 1.250747,0.404291 3.557356,1.137931 5.125797,1.630311 1.568442,0.492382 2.855017,0.898422 2.859055,0.902314 0.004,0.0038 -1.300192,1.787792 -2.898288,3.964222 -1.598095,2.176426 -3.031479,4.13028 -3.1853,4.341895 -0.153822,0.211615 -0.291035,0.397431 -0.304921,0.412925 -0.01951,0.02178 -0.107942,-0.04438 -0.389251,-0.291129 z m 2.736882,-4.722275 c 0.843752,-1.213694 1.529863,-2.210942 1.524692,-2.216112 -0.02045,-0.02047 -2.051939,0.612602 -2.223259,0.692836 -0.777815,0.364279 -1.304277,1.072509 -1.438365,1.934983 -0.03715,0.238999 -0.0125,0.73159 0.04757,0.951625 0.08407,0.307739 0.227103,0.581032 0.429368,0.820322 0.06857,0.08112 0.08402,0.08998 0.103272,0.05923 0.0125,-0.01991 0.712975,-1.029192 1.556726,-2.242884 z m -1.121416,-2.688723 c 0.133414,-0.02729 1.75029,-0.586419 2.192205,-0.758051 0.06055,-0.02352 -0.03469,-0.05947 -1.201657,-0.453711 -0.697087,-0.235492 -1.861218,-0.632903 -2.586963,-0.883133 -0.725743,-0.25023 -1.32664,-0.447834 -1.335327,-0.439119 -0.0087,0.0087 -0.01534,0.17029 -0.01479,0.359053 9.65e-4,0.328366 0.0043,0.352738 0.07635,0.563647 0.389535,1.139613 1.668129,1.857407 2.870205,1.611314 z m 4.634404,-2.558636 c -0.572609,-0.19244 -1.759122,-0.578191 -2.636705,-0.857221 -1.550372,-0.492947 -6.607705,-2.130359 -6.620936,-2.143661 -0.0036,-0.0036 0.09126,-0.216363 0.210885,-0.472714 l 0.21747,-0.466095 0.101077,0.03041 c 0.136261,0.041 0.486481,0.03845 0.700246,-0.0051 0.477685,-0.0974 0.814535,-0.25891 1.23579,-0.59257 0.757283,-0.599809 1.243829,-0.849735 1.843423,-0.946908 0.252524,-0.04093 0.940204,-0.04726 1.259642,-0.01153 0.30637,0.03421 0.554499,0.05271 0.554499,0.04132 0,-0.04449 0.129151,-0.628604 0.191267,-0.865084 0.294195,-1.119944 0.731634,-1.691717 1.870253,-2.444604 0.261364,-0.172822 0.392255,-0.276295 0.505238,-0.399395 0.290408,-0.316426 0.508915,-0.697732 0.60451,-1.054904 l 0.04772,-0.178237 0.455742,-0.03836 c 0.250658,-0.0211 0.473564,-0.03818 0.495349,-0.03798 0.0376,3.62e-4 0.03962,0.272655 0.03962,5.398263 0,2.968839 -0.0076,5.39709 -0.01698,5.396115 -0.0093,-9.65e-4 -0.485472,-0.159226 -1.058075,-0.35167 z m -1.120315,-1.62793 c 0,-0.05975 -1.170852,-1.681284 -1.345226,-1.863047 -0.359789,-0.375039 -0.729092,-0.584204 -1.273962,-0.721548 -0.217517,-0.05483 -0.285383,-0.06149 -0.628599,-0.06167 -0.419886,-2.12e-4 -0.611368,0.03407 -0.941925,0.168574 -0.42665,0.173629 -0.906729,0.608071 -1.02647,0.928903 -0.0105,0.02829 0.454452,0.171317 2.584682,0.795061 2.804097,0.821057 2.6315,0.77162 2.6315,0.753718 z m 1.190649,-3.794739 c 0.03487,-1.340791 0.05629,-2.444938 0.04757,-2.453657 -0.02903,-0.02903 -0.38672,0.08078 -0.593217,0.182127 -0.548079,0.268956 -0.993097,0.854019 -1.166661,1.533797 -0.159211,0.623571 -0.09658,1.177797 0.202888,1.794944 0.104047,0.214418 0.197547,0.357353 0.444188,0.678979 0.171823,0.224064 0.460876,0.600895 0.642338,0.837408 l 0.329933,0.430019 0.01477,-0.282907 c 0.0082,-0.1556 0.04332,-1.37992 0.07819,-2.72071 z m 2.294776,0.343876 V 44.83927 l 0.06223,0.01213 c 0.03423,0.0066 0.24811,0.04057 0.475286,0.07533 l 0.413044,0.06322 2.83e-4,0.06897 c 4.25e-4,0.09717 0.112947,0.40905 0.210556,0.583581 0.176437,0.315496 0.527351,0.71205 0.77364,0.874252 0.97089,0.639411 1.436218,1.085538 1.714658,1.643891 0.171203,0.343315 0.331707,0.873801 0.448525,1.482441 0.02748,0.14315 0.05806,0.269326 0.06799,0.280391 0.0104,0.01153 0.16474,-0.0028 0.364562,-0.03376 0.288196,-0.04481 0.432255,-0.0539 0.855767,-0.05408 0.557557,-2.14e-4 0.712752,0.01858 1.063735,0.128885 0.423458,0.133083 0.874686,0.392179 1.470855,0.84457 0.331824,0.251801 0.505107,0.355059 0.773687,0.461036 0.33833,0.133497 0.521795,0.170066 0.858922,0.171195 l 0.308332,10e-4 0.209603,0.447724 c 0.115276,0.246249 0.203077,0.454247 0.195107,0.462219 -0.01391,0.01389 -5.165561,1.701249 -7.211402,2.36199 -0.931665,0.300897 -2.966133,0.965179 -3.027117,0.988392 -0.02258,0.0086 -0.0283,-1.08599 -0.0283,-5.426314 z m 2.324155,3.543883 c 0.08475,-0.03031 0.648076,-0.198649 1.251802,-0.37408 1.205508,-0.350301 3.801141,-1.149117 3.834786,-1.180169 0.03476,-0.03209 -0.180036,-0.32216 -0.370907,-0.50089 -0.309311,-0.289638 -0.711855,-0.48685 -1.169975,-0.573193 -0.299064,-0.05637 -0.798664,-0.03529 -1.117007,0.04716 -0.487501,0.126234 -0.878503,0.34656 -1.2226,0.688928 -0.144576,0.143849 -0.307676,0.355519 -0.637277,0.827044 -0.421961,0.603655 -0.742875,1.082447 -0.742875,1.10834 0,0.01818 0.0084,0.01613 0.174053,-0.04313 z m -0.837889,-1.353768 c 0.209204,-0.289415 0.492528,-0.671461 0.629609,-0.848989 0.306069,-0.396384 0.458792,-0.661196 0.562545,-0.975422 0.105107,-0.318356 0.137357,-0.555819 0.121543,-0.895145 -0.029,-0.621731 -0.271216,-1.173769 -0.704705,-1.605998 -0.302332,-0.301451 -0.655018,-0.504143 -0.987431,-0.567481 l -0.157258,-0.02997 2.11e-4,0.172775 c 1.44e-4,0.09502 0.0306,1.272722 0.06774,2.6171 0.03718,1.344379 0.06763,2.492702 0.06771,2.55183 7.1e-5,0.05914 0.0046,0.107503 0.0098,0.107503 0.0055,0 0.180932,-0.236796 0.390138,-0.52621 z"
       id="path1"
       sodipodi:nodetypes="ssssssscssssscssssscsssssscsscssssscsssscssssscsscssssssssssscsssssssssscssssssssssscsssssssssssssssssssssssssssssssssscssssscscsssssssscssssssssssssssssssssscssccssccssssssssssscssssccsssssssssscsssssccscscc" />
  </g>
</svg>
