<?xml version="1.0" encoding="UTF-8" standalone="no"?>
<!-- Created with Inkscape (http://www.inkscape.org/) -->

<svg
   version="1.1"
   id="svg1"
   width="2666.6667"
   height="1800"
   viewBox="0 0 2666.6667 1799.9999"
   sodipodi:docname="salt-logo-cityscape.svg"
   inkscape:version="1.3 (0e150ed, 2023-07-21)"
   xmlns:inkscape="http://www.inkscape.org/namespaces/inkscape"
   xmlns:sodipodi="http://sodipodi.sourceforge.net/DTD/sodipodi-0.dtd"
   xmlns="http://www.w3.org/2000/svg"
   xmlns:svg="http://www.w3.org/2000/svg">
  <defs
     id="defs1">
    <clipPath
       clipPathUnits="userSpaceOnUse"
       id="clipPath3">
      <path
         d="M 0,2000 H 2000 V 0 H 0 Z"
         transform="translate(-533.74222,-704.42969)"
         id="path3" />
    </clipPath>
    <clipPath
       clipPathUnits="userSpaceOnUse"
       id="clipPath5">
      <path
         d="M 0,2000 H 2000 V 0 H 0 Z"
         transform="translate(-737.92382,-792.11722)"
         id="path5" />
    </clipPath>
    <clipPath
       clipPathUnits="userSpaceOnUse"
       id="clipPath7">
      <path
         d="M 0,2000 H 2000 V 0 H 0 Z"
         transform="translate(-872.35165,-704.42969)"
         id="path7" />
    </clipPath>
    <clipPath
       clipPathUnits="userSpaceOnUse"
       id="clipPath9">
      <path
         d="M 0,2000 H 2000 V 0 H 0 Z"
         transform="translate(-1054.506,-704.42969)"
         id="path9" />
    </clipPath>
    <clipPath
       clipPathUnits="userSpaceOnUse"
       id="clipPath11">
      <path
         d="M 0,2000 H 2000 V 0 H 0 Z"
         transform="translate(-1183.5675,-764.86522)"
         id="path11" />
    </clipPath>
    <clipPath
       clipPathUnits="userSpaceOnUse"
       id="clipPath13">
      <path
         d="M 0,2000 H 2000 V 0 H 0 Z"
         transform="translate(-1421.4972,-773.47852)"
         id="path13" />
    </clipPath>
    <clipPath
       clipPathUnits="userSpaceOnUse"
       id="clipPath15">
      <path
         d="M 0,2000 H 2000 V 0 H 0 Z"
         transform="translate(-636.53522,-961.32915)"
         id="path15" />
    </clipPath>
    <clipPath
       clipPathUnits="userSpaceOnUse"
       id="clipPath17">
      <path
         d="M 0,2000 H 2000 V 0 H 0 Z"
         transform="translate(-1213.3389,-927.17872)"
         id="path17" />
    </clipPath>
    <clipPath
       clipPathUnits="userSpaceOnUse"
       id="clipPath19">
      <path
         d="M 0,2000 H 2000 V 0 H 0 Z"
         transform="translate(-1200.5605,-1296.6094)"
         id="path19" />
    </clipPath>
    <clipPath
       clipPathUnits="userSpaceOnUse"
       id="clipPath21">
      <path
         d="M 0,2000 H 2000 V 0 H 0 Z"
         transform="translate(-1186.2237,-927.17872)"
         id="path21" />
    </clipPath>
    <clipPath
       clipPathUnits="userSpaceOnUse"
       id="clipPath23">
      <path
         d="M 0,2000 H 2000 V 0 H 0 Z"
         transform="translate(-1209.5986,-1297.4941)"
         id="path23" />
    </clipPath>
    <clipPath
       clipPathUnits="userSpaceOnUse"
       id="clipPath25">
      <path
         d="M 0,2000 H 2000 V 0 H 0 Z"
         transform="translate(-1243.998,-1295.9272)"
         id="path25" />
    </clipPath>
    <clipPath
       clipPathUnits="userSpaceOnUse"
       id="clipPath27">
      <path
         d="M 0,2000 H 2000 V 0 H 0 Z"
         transform="translate(-1168.1475,-936.86235)"
         id="path27" />
    </clipPath>
    <clipPath
       clipPathUnits="userSpaceOnUse"
       id="clipPath29">
      <path
         d="M 0,2000 H 2000 V 0 H 0 Z"
         transform="translate(-1229.6611,-927.17872)"
         id="path29" />
    </clipPath>
    <clipPath
       clipPathUnits="userSpaceOnUse"
       id="clipPath31">
      <path
         d="M 0,2000 H 2000 V 0 H 0 Z"
         transform="translate(-1253.0361,-1295.0425)"
         id="path31" />
    </clipPath>
    <clipPath
       clipPathUnits="userSpaceOnUse"
       id="clipPath33">
      <path
         d="M 0,2000 H 2000 V 0 H 0 Z"
         transform="translate(-1262.0752,-1294.1577)"
         id="path33" />
    </clipPath>
    <clipPath
       clipPathUnits="userSpaceOnUse"
       id="clipPath35">
      <path
         d="M 0,2000 H 2000 V 0 H 0 Z"
         transform="translate(-1271.1133,-1293.2734)"
         id="path35" />
    </clipPath>
    <clipPath
       clipPathUnits="userSpaceOnUse"
       id="clipPath37">
      <path
         d="M 0,2000 H 2000 V 0 H 0 Z"
         transform="translate(-721.22272,-1246.8242)"
         id="path37" />
    </clipPath>
    <clipPath
       clipPathUnits="userSpaceOnUse"
       id="clipPath39">
      <path
         d="M 0,2000 H 2000 V 0 H 0 Z"
         transform="translate(-680.67872,-1246.8242)"
         id="path39" />
    </clipPath>
    <clipPath
       clipPathUnits="userSpaceOnUse"
       id="clipPath41">
      <path
         d="M 0,2000 H 2000 V 0 H 0 Z"
         transform="translate(-992.79692,-1190.1593)"
         id="path41" />
    </clipPath>
    <clipPath
       clipPathUnits="userSpaceOnUse"
       id="clipPath43">
      <path
         d="M 0,2000 H 2000 V 0 H 0 Z"
         transform="translate(-1411.7481,-1066.5143)"
         id="path43" />
    </clipPath>
    <clipPath
       clipPathUnits="userSpaceOnUse"
       id="clipPath45">
      <path
         d="M 0,2000 H 2000 V 0 H 0 Z"
         transform="translate(-1182.4845,-1294.8398)"
         id="path45" />
    </clipPath>
    <clipPath
       clipPathUnits="userSpaceOnUse"
       id="clipPath47">
      <path
         d="M 0,2000 H 2000 V 0 H 0 Z"
         transform="translate(-741.49412,-1246.8242)"
         id="path47" />
    </clipPath>
    <clipPath
       clipPathUnits="userSpaceOnUse"
       id="clipPath49">
      <path
         d="M 0,2000 H 2000 V 0 H 0 Z"
         transform="translate(-689.06741,-1040.8809)"
         id="path49" />
    </clipPath>
    <clipPath
       clipPathUnits="userSpaceOnUse"
       id="clipPath51">
      <path
         d="M 0,2000 H 2000 V 0 H 0 Z"
         transform="translate(-782.03814,-1246.8242)"
         id="path51" />
    </clipPath>
    <clipPath
       clipPathUnits="userSpaceOnUse"
       id="clipPath53">
      <path
         d="M 0,2000 H 2000 V 0 H 0 Z"
         transform="translate(-761.76564,-1246.8242)"
         id="path53" />
    </clipPath>
  </defs>
  <sodipodi:namedview
     id="namedview1"
     pagecolor="#ffffff"
     bordercolor="#000000"
     borderopacity="0.25"
     inkscape:showpageshadow="2"
     inkscape:pageopacity="0.0"
     inkscape:pagecheckerboard="0"
     inkscape:deskcolor="#d1d1d1"
     inkscape:zoom="0.088499996"
     inkscape:cx="1327.6837"
     inkscape:cy="1327.6837"
     inkscape:window-width="1728"
     inkscape:window-height="966"
     inkscape:window-x="858"
     inkscape:window-y="1478"
     inkscape:window-maximized="0"
     inkscape:current-layer="layer-MC0">
    <inkscape:page
       x="0"
       y="0"
       inkscape:label="1"
       id="page1"
       width="2666.6667"
       height="1799.9999"
       margin="0"
       bleed="0"
       inkscape:export-filename="../../../Documents/salt34-logo4-white.png"
       inkscape:export-xdpi="96"
       inkscape:export-ydpi="96" />
  </sodipodi:namedview>
  <g
     id="layer-MC0"
     inkscape:groupmode="layer"
     inkscape:label="Layer 1">
    <path
       id="path2"
       d="m 0,0 v 67.354 h 13.272 v -6.636 c 0,-8.662 2.494,-16.804 7.484,-24.429 4.99,-7.625 11.813,-13.696 20.474,-18.215 8.661,-4.518 17.839,-6.778 27.536,-6.778 8.565,0 16.427,1.741 23.582,5.225 7.153,3.481 12.779,8.402 16.874,14.755 4.095,6.355 6.142,13.578 6.142,21.675 0,12.991 -4.566,22.146 -13.696,27.465 -9.133,5.317 -23.395,10.707 -42.786,16.168 -19.393,5.458 -33.959,11.812 -43.702,19.062 -9.744,7.249 -14.616,19.014 -14.616,35.301 0,9.037 2.422,17.25 7.272,24.641 4.849,7.389 11.649,13.224 20.404,17.51 8.756,4.282 18.64,6.424 29.654,6.424 6.495,0 13.012,-0.918 19.557,-2.753 6.542,-1.836 12.426,-4.472 17.651,-7.908 5.224,-3.437 9.671,-7.507 13.342,-12.214 h 0.566 v 19.769 h 12.991 V 143.464 H 109.01 v 3.954 c 0,4.801 -1.391,9.531 -4.166,14.19 -2.777,4.661 -6.543,8.778 -11.296,12.356 -4.755,3.577 -10.309,6.377 -16.663,8.402 -6.354,2.023 -12.872,3.035 -19.557,3.035 -7.719,0 -14.779,-1.482 -21.181,-4.447 -6.401,-2.966 -11.414,-7.109 -15.037,-12.427 -3.625,-5.319 -5.437,-11.178 -5.437,-17.58 0,-12.615 4.449,-21.37 13.345,-26.263 8.896,-4.896 23.158,-10.026 42.784,-15.392 19.629,-5.365 34.501,-11.932 44.621,-19.698 10.119,-7.766 15.179,-20.263 15.179,-37.49 0,-10.166 -2.73,-19.463 -8.189,-27.887 C 117.951,15.79 110.493,9.178 101.031,4.377 91.571,-0.424 80.956,-2.824 69.189,-2.824 61.376,-2.824 53.915,-1.671 46.81,0.635 39.701,2.94 33.299,6.234 27.605,10.52 21.909,14.802 17.318,19.861 13.839,25.699 H 13.272 V 0 Z"
       style="fill:#000000;fill-opacity:1;fill-rule:nonzero;stroke:none"
       transform="matrix(2.8230125,0,0,-2.8230125,23.071664,1737.8982)"
       clip-path="url(#clipPath3)" />
    <path
       id="path4"
       d="M 0,0 H 70.32 L 36.149,99.408 H 34.173 Z M -41.655,-74.697 17.369,95.596 h -24.57 v 13.133 h 84.44 V 95.596 H 52.67 l 59.871,-170.293 h 24.287 V -87.688 H 71.732 v 12.991 h 24.57 L 74.557,-13.132 H -4.659 L -25.698,-74.697 H 0 v -12.991 h -66.508 v 12.991 z"
       style="fill:#000000;fill-opacity:1;fill-rule:nonzero;stroke:none"
       transform="matrix(2.8230125,0,0,-2.8230125,599.47884,1490.3552)"
       clip-path="url(#clipPath5)" />
    <path
       id="path6"
       d="M 0,0 V 12.99 H 26.546 V 183.283 H 0 v 13.133 H 69.05 V 183.283 H 42.784 V 12.99 h 80.911 v 65.096 h 15.392 V 0 Z"
       style="fill:#000000;fill-opacity:1;fill-rule:nonzero;stroke:none"
       transform="matrix(2.8230125,0,0,-2.8230125,978.97036,1737.8982)"
       clip-path="url(#clipPath7)" />
    <path
       id="path8"
       d="m 0,0 v 12.99 h 26.829 v 170.293 h -56.624 v -48.856 h -13.272 v 61.989 H 113.104 V 134.427 H 99.83 v 48.856 H 43.067 V 12.99 H 70.038 V 0 Z"
       style="fill:#000000;fill-opacity:1;fill-rule:nonzero;stroke:none"
       transform="matrix(2.8230125,0,0,-2.8230125,1493.1941,1737.8982)"
       clip-path="url(#clipPath9)" />
    <path
       id="path10"
       d="m 0,0 h 13.555 c 1.883,-17.04 7.576,-29.772 17.085,-38.196 9.507,-8.426 20.569,-12.638 33.183,-12.638 7.531,0 14.874,1.554 22.029,4.66 7.153,3.107 13.132,8.025 17.933,14.756 4.8,6.73 7.2,15.18 7.2,25.346 0,11.389 -3.034,20.474 -9.107,27.253 -6.072,6.777 -13.674,11.248 -22.805,13.414 -9.131,2.165 -18.355,2.4 -27.676,0.706 v 12.991 c 9.321,-0.755 17.603,0.424 24.853,3.53 7.247,3.107 12.919,7.883 17.015,14.332 4.094,6.448 6.143,14.097 6.143,22.947 0,7.152 -1.578,13.601 -4.731,19.344 -3.155,5.742 -7.555,10.26 -13.203,13.556 -5.648,3.294 -12.098,4.942 -19.344,4.942 -12.145,0 -21.3,-3.791 -27.465,-11.367 -6.168,-7.579 -9.344,-17.392 -9.531,-29.441 H 11.296 c 0.093,11.201 2.376,20.779 6.848,28.735 4.47,7.954 10.541,13.98 18.215,18.074 7.671,4.095 16.451,6.143 26.334,6.143 9.508,0 18.262,-2.167 26.266,-6.496 8,-4.331 14.213,-10.332 18.639,-18.003 4.423,-7.674 6.636,-16.263 6.636,-25.771 0,-21.839 -10.59,-36.807 -31.771,-44.902 V 43.35 c 11.86,-1.602 22.051,-6.52 30.571,-14.756 8.518,-8.239 12.779,-19.888 12.779,-34.948 0,-10.921 -2.662,-20.64 -7.978,-29.159 -5.32,-8.521 -12.758,-15.228 -22.312,-20.122 -9.555,-4.893 -20.214,-7.343 -31.983,-7.343 -11.859,0 -22.521,2.635 -31.981,7.908 -9.461,5.271 -16.945,12.709 -22.453,22.31 C 3.599,-23.157 0.563,-12.238 0,0"
       style="fill:#000000;fill-opacity:1;fill-rule:nonzero;stroke:none"
       transform="matrix(2.8230125,0,0,-2.8230125,1857.5365,1567.288)"
       clip-path="url(#clipPath11)" />
    <path
       id="path12"
       d="M 0,0 V 109.716 H -0.565 L -69.757,0 Z m -22.028,-69.049 v 11.861 H 0 v 45.75 h -75.828 c -1.318,4.894 -3.72,8.707 -7.2,11.438 L 0,129.062 H 12.989 V 0 H 44.761 V -11.438 H 12.989 v -45.75 h 17.37 v -11.861 z"
       style="fill:#000000;fill-opacity:1;fill-rule:nonzero;stroke:none"
       transform="matrix(2.8230125,0,0,-2.8230125,2529.2149,1542.9725)"
       clip-path="url(#clipPath13)" />
    <path
       id="path14"
       d="M 0,0 C 0,0 87.424,105.183 219.073,95.45 350.723,85.717 483.567,-34.151 483.567,-34.151 h -57.543 c 0,0 -102.963,113.721 -206.951,125.503 C 115.086,103.134 23.393,0.171 23.393,0.171 Z"
       style="fill:#000000;fill-opacity:1;fill-rule:nonzero;stroke:none"
       transform="matrix(2.8230125,0,0,-2.8230125,313.25759,1012.6679)"
       clip-path="url(#clipPath15)" />
    <path
       id="path16"
       d="M 0,0 H 12.583 V 370.518 L 5.455,371.215 0,370.681 Z"
       style="fill:#000000;fill-opacity:1;fill-rule:nonzero;stroke:none"
       transform="matrix(2.8230125,0,0,-2.8230125,1941.5817,1109.075)"
       clip-path="url(#clipPath17)" />
    <path
       id="path18"
       d="M 0,0 -5.299,-0.519 V -369.431 H 0 Z"
       style="fill:#000000;fill-opacity:1;fill-rule:nonzero;stroke:none"
       transform="matrix(2.8230125,0,0,-2.8230125,1905.508,66.16742)"
       clip-path="url(#clipPath19)" />
    <path
       id="path20"
       d="M 0,0 H 5.299 V 368.546 L 0,368.027 Z"
       style="fill:#000000;fill-opacity:1;fill-rule:nonzero;stroke:none"
       transform="matrix(2.8230125,0,0,-2.8230125,1865.035,1109.075)"
       clip-path="url(#clipPath21)" />
    <path
       id="path22"
       d="M 0,0 -5.298,-0.519 V -370.315 H 0 Z"
       style="fill:#000000;fill-opacity:1;fill-rule:nonzero;stroke:none"
       transform="matrix(2.8230125,0,0,-2.8230125,1931.0227,63.6699)"
       clip-path="url(#clipPath23)" />
    <path
       id="path24"
       d="M 0,0 -5.299,0.519 V -368.749 H 0 Z"
       style="fill:#000000;fill-opacity:1;fill-rule:nonzero;stroke:none"
       transform="matrix(2.8230125,0,0,-2.8230125,2028.1327,68.09329)"
       clip-path="url(#clipPath25)" />
    <path
       id="path26"
       d="M 0,0 C 1.894,-1.519 3.659,-2.952 5.298,-4.298 V 357.093 L 0,356.574 Z"
       style="fill:#000000;fill-opacity:1;fill-rule:nonzero;stroke:none"
       transform="matrix(2.8230125,0,0,-2.8230125,1814.0057,1081.7379)"
       clip-path="url(#clipPath27)" />
    <path
       id="path28"
       d="M 0,0 H 5.299 V 369.633 L 0,370.152 Z"
       style="fill:#000000;fill-opacity:1;fill-rule:nonzero;stroke:none"
       transform="matrix(2.8230125,0,0,-2.8230125,1987.6594,1109.075)"
       clip-path="url(#clipPath29)" />
    <path
       id="path30"
       d="M 0,0 -5.298,0.519 V -367.864 H 0 Z"
       style="fill:#000000;fill-opacity:1;fill-rule:nonzero;stroke:none"
       transform="matrix(2.8230125,0,0,-2.8230125,2053.6474,70.59081)"
       clip-path="url(#clipPath31)" />
    <path
       id="path32"
       d="M 0,0 -5.298,0.519 V -366.979 H 0 Z"
       style="fill:#000000;fill-opacity:1;fill-rule:nonzero;stroke:none"
       transform="matrix(2.8230125,0,0,-2.8230125,2079.1648,73.08862)"
       clip-path="url(#clipPath33)" />
    <path
       id="path34"
       d="M 0,0 -5.299,0.519 V -366.095 H 0 Z"
       style="fill:#000000;fill-opacity:1;fill-rule:nonzero;stroke:none"
       transform="matrix(2.8230125,0,0,-2.8230125,2104.6795,75.585)"
       clip-path="url(#clipPath35)" />
    <path
       id="path36"
       d="m 0,0 h -11.884 v -199.405 c 3.93,1.186 7.893,2.33 11.884,3.436 z"
       style="fill:#000000;fill-opacity:1;fill-rule:nonzero;stroke:none"
       transform="matrix(2.8230125,0,0,-2.8230125,552.33149,206.71168)"
       clip-path="url(#clipPath37)" />
    <path
       id="path38"
       d="m 0,0 h -6.922 v -161.188 h -8.989 v -37.481 h -5.921 v 73.227 h -17.074 v -15.028 h -47.667 v 12.321 h -12.639 v -6.175 h -13.063 v 4.983 h -17.246 v -7.772 h -8.364 v -9.39 h -9.052 v -136.571 c 34.014,22.329 85.658,52.14 146.937,74.183 z"
       style="fill:#000000;fill-opacity:1;fill-rule:nonzero;stroke:none"
       transform="matrix(2.8230125,0,0,-2.8230125,437.87523,206.71168)"
       clip-path="url(#clipPath39)" />
    <path
       id="path40"
       d="M 0,0 14.33,29.71 39.839,0 Z M -14.511,27.27 0,42.12 11.53,29.71 -2.101,4.55 Z M -41.591,0 -17.5,25.78 -2.8,0 Z m 204.75,102.08 V -48.97 H 90.419 V -84.55 H 83.14 v -13.14 h -4.101 v 56.46 H 60.6 v 29.6 h -7.911 v 11.6 H 46.88 V 3.22 L 10,41.64 v 7.85 l -8.37,7 -8.36,-7 V 41.64 L -43.62,3.22 v -3.25 h -3.75 v -11.6 h -9.391 V -78.05 H -75.03 v -8.71 h -7.69 v 10.41 h -14.341 v 11.78 h -74.79 v -11.78 h -16.74 v -8.2 h -10.07 V 56.67 h -3.709 V -125.3 c 16.7,2.09 33.7,3.25 50.89,3.25 143.969,0 271.93,-87.91 323.089,-128.27 v 353.23 z"
       style="fill:#000000;fill-opacity:1;fill-rule:nonzero;stroke:none"
       transform="matrix(2.8230125,0,0,-2.8230125,1318.9888,366.67762)"
       clip-path="url(#clipPath41)" />
    <path
       id="path42"
       d="M 0,0 V 25.951 H -32.444 V -1.368 h -6.147 v 27.319 h -49.176 v -40.978 h -3.42 v 3.415 h -38.925 v 237.341 l -6.783,0.664 V -139.335 H 46.099 V 0 Z"
       style="fill:#000000;fill-opacity:1;fill-rule:nonzero;stroke:none"
       transform="matrix(2.8230125,0,0,-2.8230125,2501.6932,715.729)"
       clip-path="url(#clipPath43)" />
    <path
       id="path44"
       d="m 0,0 -5.299,-0.519 v -364.857 c 0.958,-0.803 1.875,-1.574 2.712,-2.285 H 0 Z"
       style="fill:#000000;fill-opacity:1;fill-rule:nonzero;stroke:none"
       transform="matrix(2.8230125,0,0,-2.8230125,1854.4791,71.16303)"
       clip-path="url(#clipPath45)" />
    <path
       id="path46"
       d="m 0,0 h -11.884 v -193.718 c 3.936,1.021 7.896,2.003 11.884,2.937 z"
       style="fill:#000000;fill-opacity:1;fill-rule:nonzero;stroke:none"
       transform="matrix(2.8230125,0,0,-2.8230125,609.55793,206.71168)"
       clip-path="url(#clipPath47)" />
    <path
       id="path48"
       d="M 0,0 C 3.925,1.346 7.887,2.656 11.884,3.93 V 205.943 H 0 Z"
       style="fill:#000000;fill-opacity:1;fill-rule:nonzero;stroke:none"
       transform="matrix(2.8230125,0,0,-2.8230125,461.5567,788.0922)"
       clip-path="url(#clipPath49)" />
    <path
       id="path50"
       d="m 0,0 h -11.884 v -184.961 c 3.943,0.675 7.904,1.303 11.884,1.878 z"
       style="fill:#000000;fill-opacity:1;fill-rule:nonzero;stroke:none"
       transform="matrix(2.8230125,0,0,-2.8230125,724.01419,206.71168)"
       clip-path="url(#clipPath51)" />
    <path
       id="path52"
       d="m 0,0 h -11.884 v -188.898 c 3.939,0.852 7.901,1.656 11.884,2.414 z"
       style="fill:#000000;fill-opacity:1;fill-rule:nonzero;stroke:none"
       transform="matrix(2.8230125,0,0,-2.8230125,666.78464,206.71168)"
       clip-path="url(#clipPath53)" />
  </g>
</svg>
